<mxfile host="Electron" agent="Mozilla/5.0 (Windows NT 10.0; Win64; x64) AppleWebKit/537.36 (KHTML, like Gecko) draw.io/26.2.15 Chrome/134.0.6998.205 Electron/35.2.1 Safari/537.36" version="26.2.15">
  <diagram id="C5RBs43oDa-KdzZeNtuy" name="Page-1">
    <mxGraphModel dx="490" dy="823" grid="1" gridSize="10" guides="1" tooltips="1" connect="1" arrows="1" fold="1" page="1" pageScale="1" pageWidth="827" pageHeight="1169" math="0" shadow="0">
      <root>
        <mxCell id="WIyWlLk6GJQsqaUBKTNV-0" />
        <mxCell id="WIyWlLk6GJQsqaUBKTNV-1" parent="WIyWlLk6GJQsqaUBKTNV-0" />
        <mxCell id="WIyWlLk6GJQsqaUBKTNV-2" value="" style="rounded=0;html=1;jettySize=auto;orthogonalLoop=1;fontSize=11;endArrow=block;endFill=0;endSize=8;strokeWidth=1;shadow=0;labelBackgroundColor=none;edgeStyle=orthogonalEdgeStyle;" parent="WIyWlLk6GJQsqaUBKTNV-1" source="WIyWlLk6GJQsqaUBKTNV-3" target="WIyWlLk6GJQsqaUBKTNV-6" edge="1">
          <mxGeometry relative="1" as="geometry" />
        </mxCell>
        <mxCell id="WIyWlLk6GJQsqaUBKTNV-3" value="스킬 키 입력" style="rounded=1;whiteSpace=wrap;html=1;fontSize=12;glass=0;strokeWidth=1;shadow=0;" parent="WIyWlLk6GJQsqaUBKTNV-1" vertex="1">
          <mxGeometry x="20" y="20" width="120" height="40" as="geometry" />
        </mxCell>
        <mxCell id="WIyWlLk6GJQsqaUBKTNV-5" value="No" style="edgeStyle=orthogonalEdgeStyle;rounded=0;html=1;jettySize=auto;orthogonalLoop=1;fontSize=11;endArrow=block;endFill=0;endSize=8;strokeWidth=1;shadow=0;labelBackgroundColor=none;" parent="WIyWlLk6GJQsqaUBKTNV-1" source="WIyWlLk6GJQsqaUBKTNV-6" target="WIyWlLk6GJQsqaUBKTNV-7" edge="1">
          <mxGeometry y="10" relative="1" as="geometry">
            <mxPoint as="offset" />
          </mxGeometry>
        </mxCell>
        <mxCell id="Sx8Ih_XinF54xxK6r6Wm-1" value="" style="edgeStyle=orthogonalEdgeStyle;rounded=0;orthogonalLoop=1;jettySize=auto;html=1;" edge="1" parent="WIyWlLk6GJQsqaUBKTNV-1" source="WIyWlLk6GJQsqaUBKTNV-6" target="Sx8Ih_XinF54xxK6r6Wm-0">
          <mxGeometry relative="1" as="geometry" />
        </mxCell>
        <mxCell id="WIyWlLk6GJQsqaUBKTNV-6" value="스킬 게이지&amp;nbsp;&lt;div&gt;=&lt;/div&gt;&lt;div&gt;100&lt;/div&gt;" style="rhombus;whiteSpace=wrap;html=1;shadow=0;fontFamily=Helvetica;fontSize=12;align=center;strokeWidth=1;spacing=6;spacingTop=-4;" parent="WIyWlLk6GJQsqaUBKTNV-1" vertex="1">
          <mxGeometry x="190" width="100" height="80" as="geometry" />
        </mxCell>
        <mxCell id="WIyWlLk6GJQsqaUBKTNV-7" value="발동 안됨" style="rounded=1;whiteSpace=wrap;html=1;fontSize=12;glass=0;strokeWidth=1;shadow=0;" parent="WIyWlLk6GJQsqaUBKTNV-1" vertex="1">
          <mxGeometry x="360" y="20" width="120" height="40" as="geometry" />
        </mxCell>
        <mxCell id="Sx8Ih_XinF54xxK6r6Wm-3" value="" style="edgeStyle=orthogonalEdgeStyle;rounded=0;orthogonalLoop=1;jettySize=auto;html=1;" edge="1" parent="WIyWlLk6GJQsqaUBKTNV-1" source="Sx8Ih_XinF54xxK6r6Wm-0" target="Sx8Ih_XinF54xxK6r6Wm-2">
          <mxGeometry relative="1" as="geometry" />
        </mxCell>
        <mxCell id="Sx8Ih_XinF54xxK6r6Wm-0" value="폭발 이펙트&lt;br&gt;(맵 전역)" style="whiteSpace=wrap;html=1;shadow=0;strokeWidth=1;spacing=6;spacingTop=-4;" vertex="1" parent="WIyWlLk6GJQsqaUBKTNV-1">
          <mxGeometry x="200" y="110" width="80" height="60" as="geometry" />
        </mxCell>
        <mxCell id="Sx8Ih_XinF54xxK6r6Wm-7" value="" style="edgeStyle=orthogonalEdgeStyle;rounded=0;orthogonalLoop=1;jettySize=auto;html=1;" edge="1" parent="WIyWlLk6GJQsqaUBKTNV-1" source="Sx8Ih_XinF54xxK6r6Wm-2" target="Sx8Ih_XinF54xxK6r6Wm-6">
          <mxGeometry relative="1" as="geometry" />
        </mxCell>
        <mxCell id="Sx8Ih_XinF54xxK6r6Wm-2" value="맵 내 모든&amp;nbsp;&lt;div&gt;오브젝트 탐색&lt;/div&gt;" style="whiteSpace=wrap;html=1;shadow=0;strokeWidth=1;spacing=6;spacingTop=-4;" vertex="1" parent="WIyWlLk6GJQsqaUBKTNV-1">
          <mxGeometry x="200" y="200" width="80" height="60" as="geometry" />
        </mxCell>
        <mxCell id="Sx8Ih_XinF54xxK6r6Wm-9" value="" style="edgeStyle=orthogonalEdgeStyle;rounded=0;orthogonalLoop=1;jettySize=auto;html=1;entryX=0;entryY=0.5;entryDx=0;entryDy=0;" edge="1" parent="WIyWlLk6GJQsqaUBKTNV-1" source="Sx8Ih_XinF54xxK6r6Wm-6" target="Sx8Ih_XinF54xxK6r6Wm-8">
          <mxGeometry relative="1" as="geometry">
            <Array as="points">
              <mxPoint x="340" y="330" />
              <mxPoint x="340" y="330" />
            </Array>
          </mxGeometry>
        </mxCell>
        <mxCell id="Sx8Ih_XinF54xxK6r6Wm-10" value="Yes" style="edgeLabel;html=1;align=center;verticalAlign=middle;resizable=0;points=[];" vertex="1" connectable="0" parent="Sx8Ih_XinF54xxK6r6Wm-9">
          <mxGeometry x="0.2457" y="-1" relative="1" as="geometry">
            <mxPoint x="-18" y="-11" as="offset" />
          </mxGeometry>
        </mxCell>
        <mxCell id="Sx8Ih_XinF54xxK6r6Wm-37" value="" style="edgeStyle=orthogonalEdgeStyle;rounded=0;orthogonalLoop=1;jettySize=auto;html=1;" edge="1" parent="WIyWlLk6GJQsqaUBKTNV-1" source="Sx8Ih_XinF54xxK6r6Wm-6" target="Sx8Ih_XinF54xxK6r6Wm-36">
          <mxGeometry relative="1" as="geometry" />
        </mxCell>
        <mxCell id="Sx8Ih_XinF54xxK6r6Wm-6" value="오브젝트&lt;div&gt;=&lt;/div&gt;&lt;div&gt;적&lt;/div&gt;" style="rhombus;whiteSpace=wrap;html=1;shadow=0;strokeWidth=1;spacing=6;spacingTop=-4;" vertex="1" parent="WIyWlLk6GJQsqaUBKTNV-1">
          <mxGeometry x="200" y="290" width="80" height="80" as="geometry" />
        </mxCell>
        <mxCell id="Sx8Ih_XinF54xxK6r6Wm-12" value="" style="edgeStyle=orthogonalEdgeStyle;rounded=0;orthogonalLoop=1;jettySize=auto;html=1;" edge="1" parent="WIyWlLk6GJQsqaUBKTNV-1" source="Sx8Ih_XinF54xxK6r6Wm-8">
          <mxGeometry relative="1" as="geometry">
            <mxPoint x="240" y="270" as="targetPoint" />
            <Array as="points">
              <mxPoint x="410" y="270" />
            </Array>
          </mxGeometry>
        </mxCell>
        <mxCell id="Sx8Ih_XinF54xxK6r6Wm-8" value="적에게 고정 데미지" style="whiteSpace=wrap;html=1;shadow=0;strokeWidth=1;spacing=6;spacingTop=-4;" vertex="1" parent="WIyWlLk6GJQsqaUBKTNV-1">
          <mxGeometry x="373" y="300" width="80" height="60" as="geometry" />
        </mxCell>
        <mxCell id="Sx8Ih_XinF54xxK6r6Wm-28" value="" style="edgeStyle=orthogonalEdgeStyle;rounded=0;orthogonalLoop=1;jettySize=auto;html=1;" edge="1" parent="WIyWlLk6GJQsqaUBKTNV-1" source="Sx8Ih_XinF54xxK6r6Wm-25" target="Sx8Ih_XinF54xxK6r6Wm-29">
          <mxGeometry relative="1" as="geometry">
            <mxPoint x="250.0344827586208" y="630" as="targetPoint" />
          </mxGeometry>
        </mxCell>
        <mxCell id="Sx8Ih_XinF54xxK6r6Wm-40" value="" style="edgeStyle=orthogonalEdgeStyle;rounded=0;orthogonalLoop=1;jettySize=auto;html=1;" edge="1" parent="WIyWlLk6GJQsqaUBKTNV-1" source="Sx8Ih_XinF54xxK6r6Wm-25" target="Sx8Ih_XinF54xxK6r6Wm-39">
          <mxGeometry relative="1" as="geometry" />
        </mxCell>
        <mxCell id="Sx8Ih_XinF54xxK6r6Wm-25" value="오브젝트&lt;div&gt;=&lt;/div&gt;&lt;div&gt;탄막&lt;/div&gt;" style="rhombus;whiteSpace=wrap;html=1;shadow=0;strokeWidth=1;spacing=6;spacingTop=-4;" vertex="1" parent="WIyWlLk6GJQsqaUBKTNV-1">
          <mxGeometry x="200" y="500" width="80" height="80" as="geometry" />
        </mxCell>
        <mxCell id="Sx8Ih_XinF54xxK6r6Wm-35" value="" style="edgeStyle=orthogonalEdgeStyle;rounded=0;orthogonalLoop=1;jettySize=auto;html=1;" edge="1" parent="WIyWlLk6GJQsqaUBKTNV-1" source="Sx8Ih_XinF54xxK6r6Wm-29">
          <mxGeometry relative="1" as="geometry">
            <mxPoint x="240" y="470" as="targetPoint" />
            <Array as="points">
              <mxPoint x="413" y="470" />
            </Array>
          </mxGeometry>
        </mxCell>
        <mxCell id="Sx8Ih_XinF54xxK6r6Wm-29" value="탄막 제거" style="whiteSpace=wrap;html=1;shadow=0;strokeWidth=1;spacing=6;spacingTop=-4;" vertex="1" parent="WIyWlLk6GJQsqaUBKTNV-1">
          <mxGeometry x="373" y="510" width="80" height="60" as="geometry" />
        </mxCell>
        <mxCell id="Sx8Ih_XinF54xxK6r6Wm-38" value="" style="edgeStyle=orthogonalEdgeStyle;rounded=0;orthogonalLoop=1;jettySize=auto;html=1;" edge="1" parent="WIyWlLk6GJQsqaUBKTNV-1" source="Sx8Ih_XinF54xxK6r6Wm-36" target="Sx8Ih_XinF54xxK6r6Wm-25">
          <mxGeometry relative="1" as="geometry" />
        </mxCell>
        <mxCell id="Sx8Ih_XinF54xxK6r6Wm-36" value="모든 적&amp;nbsp;&lt;div&gt;제거 완료&lt;/div&gt;" style="whiteSpace=wrap;html=1;shadow=0;strokeWidth=1;spacing=6;spacingTop=-4;" vertex="1" parent="WIyWlLk6GJQsqaUBKTNV-1">
          <mxGeometry x="200" y="390" width="80" height="60" as="geometry" />
        </mxCell>
        <mxCell id="Sx8Ih_XinF54xxK6r6Wm-44" value="" style="edgeStyle=orthogonalEdgeStyle;rounded=0;orthogonalLoop=1;jettySize=auto;html=1;" edge="1" parent="WIyWlLk6GJQsqaUBKTNV-1" source="Sx8Ih_XinF54xxK6r6Wm-39" target="Sx8Ih_XinF54xxK6r6Wm-43">
          <mxGeometry relative="1" as="geometry" />
        </mxCell>
        <mxCell id="Sx8Ih_XinF54xxK6r6Wm-39" value="모든 탄막&amp;nbsp;&lt;div&gt;제거 완료&lt;/div&gt;" style="whiteSpace=wrap;html=1;shadow=0;strokeWidth=1;spacing=6;spacingTop=-4;" vertex="1" parent="WIyWlLk6GJQsqaUBKTNV-1">
          <mxGeometry x="200" y="620" width="80" height="60" as="geometry" />
        </mxCell>
        <mxCell id="Sx8Ih_XinF54xxK6r6Wm-46" value="" style="edgeStyle=orthogonalEdgeStyle;rounded=0;orthogonalLoop=1;jettySize=auto;html=1;" edge="1" parent="WIyWlLk6GJQsqaUBKTNV-1" source="Sx8Ih_XinF54xxK6r6Wm-43" target="Sx8Ih_XinF54xxK6r6Wm-45">
          <mxGeometry relative="1" as="geometry" />
        </mxCell>
        <mxCell id="Sx8Ih_XinF54xxK6r6Wm-43" value="쿨다운 시작&amp;nbsp;&lt;div&gt;및&lt;/div&gt;&lt;div&gt;궁극기 종료&lt;/div&gt;" style="whiteSpace=wrap;html=1;shadow=0;strokeWidth=1;spacing=6;spacingTop=-4;" vertex="1" parent="WIyWlLk6GJQsqaUBKTNV-1">
          <mxGeometry x="200" y="710" width="80" height="60" as="geometry" />
        </mxCell>
        <mxCell id="Sx8Ih_XinF54xxK6r6Wm-45" value="종료" style="ellipse;whiteSpace=wrap;html=1;shadow=0;strokeWidth=1;spacing=6;spacingTop=-4;" vertex="1" parent="WIyWlLk6GJQsqaUBKTNV-1">
          <mxGeometry x="200" y="800" width="80" height="80" as="geometry" />
        </mxCell>
      </root>
    </mxGraphModel>
  </diagram>
</mxfile>
